<?xml version="1.0" encoding="UTF-8"?>
<svg id="Layer_2" data-name="Layer 2" xmlns="http://www.w3.org/2000/svg" viewBox="0 0 393.55 469.47">
  <defs>
    <style>
      .cls-1 {
        fill: #f9f9f7;
      }
    </style>
  </defs>
  <g id="Layer_1-2" data-name="Layer 1">
    <path class="cls-1" d="M382.86,108.41L285.12,10.69c-6.84-6.84-16.1-10.69-25.79-10.69H44.22C19.79,0,0,19.8,0,44.22v381.02c0,24.44,19.79,44.22,44.2,44.22h305.14c24.42,0,44.2-19.79,44.2-44.22V134.22c0-9.68-3.85-18.97-10.69-25.8ZM235.24,326.42c-.13,2.68-.29,5.65-.53,8.92H99.71c1.17,16.8,6.71,29.56,16.61,38.3,9.92,8.75,21.39,13.11,34.45,13.11,10.5,0,19.29-2.39,26.41-7.17,7.11-4.78,12.42-11.25,15.92-19.4h37.07c-4.67,16.32-13.93,29.96-27.81,40.92-13.88,10.96-31.07,16.43-51.59,16.43-17.01,0-32.11-3.79-45.28-11.36-13.18-7.59-23.49-18.13-30.95-31.66-7.48-13.51-11.2-29.25-11.2-47.21s3.67-34.16,11.01-47.91c7.35-13.77,17.6-24.49,30.78-32.19,13.17-7.7,28.5-11.54,45.99-11.54s31.82,3.79,44.4,11.38c12.6,7.57,22.39,17.65,29.38,30.25,7,12.58,10.49,26.46,10.49,41.61,0,2.33-.05,4.83-.16,7.51ZM313.4,413.34h-37.07v-173.46h37.07v173.46ZM312.18,200.52c-4.54,4.32-10.32,6.47-17.31,6.47s-12.77-2.15-17.32-6.47c-4.54-4.3-6.82-9.74-6.82-16.27s2.28-11.94,6.82-16.25c4.56-4.32,10.32-6.47,17.32-6.47s12.77,2.15,17.31,6.47c4.54,4.3,6.82,9.72,6.82,16.25s-2.28,11.96-6.82,16.27ZM299.03,137.94c-20.13,0-36.47-16.34-36.47-36.47v-54.94l91.42,91.42h-54.94ZM184,277.99c-8.86-7.93-19.93-11.89-33.23-11.89-12.35,0-23.31,3.67-32.86,11.01-9.57,7.35-15.39,18.36-17.49,33.04h97.93c-.71-13.51-5.49-24.24-14.35-32.17Z"/>
  </g>
</svg>