<?xml version="1.0" encoding="UTF-8"?>
<svg id="Layer_2" data-name="Layer 2" xmlns="http://www.w3.org/2000/svg" viewBox="0 0 607.34 211.02">
  <defs>
    <style>
      .cls-1 {
        fill: #532aeb;
      }
    </style>
  </defs>
  <g id="Layer_1-2" data-name="Layer 1">
    <g>
      <path class="cls-1" d="M172.1,48.73L128.16,4.8c-3.07-3.07-7.24-4.8-11.59-4.8H19.88C8.89,0,0,8.9,0,19.88v171.27c0,10.98,8.89,19.88,19.87,19.88h137.16c10.98,0,19.87-8.89,19.87-19.88V60.33c0-4.35-1.73-8.52-4.8-11.6ZM105.74,146.73c-.06,1.2-.13,2.54-.24,4.01h-60.68c.52,7.55,3.02,13.29,7.47,17.21,4.46,3.93,9.62,5.89,15.48,5.89,4.72,0,8.67-1.07,11.87-3.22,3.2-2.15,5.58-5.06,7.16-8.72h16.66c-2.1,7.34-6.26,13.47-12.5,18.39-6.24,4.93-13.97,7.39-23.19,7.39-7.65,0-14.43-1.71-20.35-5.11-5.93-3.41-10.56-8.15-13.91-14.23-3.36-6.07-5.03-13.15-5.03-21.22s1.65-15.35,4.95-21.53c3.3-6.19,7.91-11.01,13.84-14.47,5.92-3.46,12.81-5.19,20.67-5.19s14.3,1.7,19.96,5.11c5.66,3.4,10.07,7.93,13.21,13.6,3.15,5.66,4.71,11.89,4.71,18.71,0,1.05-.02,2.17-.07,3.38ZM140.87,185.79h-16.66v-77.97h16.66v77.97ZM140.32,90.13c-2.04,1.94-4.64,2.91-7.78,2.91s-5.74-.97-7.79-2.91c-2.04-1.93-3.07-4.38-3.07-7.31s1.02-5.37,3.07-7.3c2.05-1.94,4.64-2.91,7.79-2.91s5.74.97,7.78,2.91c2.04,1.93,3.07,4.37,3.07,7.3s-1.02,5.38-3.07,7.31ZM134.41,62c-9.05,0-16.39-7.34-16.39-16.39v-24.7l41.09,41.09h-24.7ZM82.71,124.96c-3.98-3.57-8.96-5.34-14.94-5.34-5.55,0-10.48,1.65-14.77,4.95-4.3,3.3-6.92,8.25-7.86,14.85h44.02c-.32-6.07-2.47-10.89-6.45-14.46Z"/>
      <g>
        <path class="cls-1" d="M236.01,96.62c-5.28,0-9.96-1.18-14.04-3.52-4.08-2.35-7.28-5.62-9.59-9.81-2.31-4.19-3.47-9.07-3.47-14.64s1.14-10.59,3.42-14.85c2.28-4.26,5.46-7.59,9.54-9.97,4.08-2.38,8.84-3.58,14.26-3.58s9.87,1.18,13.77,3.52c3.9,2.35,6.94,5.47,9.11,9.38,2.17,3.9,3.25,8.2,3.25,12.9,0,.72-.02,1.5-.05,2.33-.04.83-.09,1.75-.16,2.77h-41.85c.36,5.2,2.08,9.16,5.15,11.87,3.07,2.71,6.63,4.07,10.68,4.07,3.25,0,5.98-.74,8.19-2.22,2.2-1.48,3.85-3.49,4.93-6.02h11.49c-1.45,5.06-4.32,9.29-8.62,12.68-4.3,3.4-9.63,5.1-15.99,5.1ZM236.01,49.68c-3.83,0-7.23,1.14-10.19,3.41-2.96,2.28-4.77,5.69-5.42,10.25h30.36c-.22-4.19-1.7-7.52-4.45-9.97-2.75-2.46-6.18-3.69-10.3-3.69Z"/>
        <path class="cls-1" d="M292.39,96.62c-4.55,0-8.31-.76-11.28-2.28-2.96-1.52-5.17-3.52-6.61-6.02-1.45-2.49-2.17-5.22-2.17-8.19,0-5.2,2.02-9.32,6.07-12.36,4.05-3.04,9.83-4.55,17.35-4.55h14.09v-.98c0-4.19-1.14-7.34-3.41-9.43-2.28-2.1-5.22-3.14-8.84-3.14-3.18,0-5.95.78-8.29,2.33-2.35,1.56-3.78,3.85-4.28,6.88h-11.49c.36-3.9,1.68-7.25,3.96-10.03,2.28-2.78,5.17-4.91,8.67-6.4,3.5-1.48,7.35-2.22,11.55-2.22,7.52,0,13.34,1.97,17.46,5.91,4.12,3.94,6.18,9.31,6.18,16.1v33.07h-9.97l-.98-9.22c-1.52,2.96-3.72,5.46-6.61,7.48-2.89,2.02-6.69,3.04-11.38,3.04ZM294.67,87.3c3.11,0,5.73-.74,7.86-2.22,2.13-1.48,3.79-3.45,4.99-5.91,1.19-2.46,1.93-5.17,2.22-8.13h-12.79c-4.55,0-7.79.8-9.7,2.38-1.92,1.59-2.87,3.58-2.87,5.96s.92,4.39,2.76,5.8c1.84,1.41,4.35,2.11,7.54,2.11Z"/>
        <path class="cls-1" d="M356.24,96.62c-6.79,0-12.4-1.66-16.8-4.99-4.41-3.32-6.94-7.73-7.59-13.23h11.6c.58,2.46,1.95,4.57,4.12,6.34,2.17,1.77,5.02,2.66,8.56,2.66s6-.72,7.59-2.17c1.59-1.45,2.38-3.11,2.38-4.99,0-2.75-1.1-4.61-3.31-5.58-2.21-.98-5.26-1.86-9.16-2.66-3.04-.65-6.05-1.52-9.05-2.6-3-1.08-5.49-2.62-7.48-4.61-1.99-1.99-2.98-4.68-2.98-8.08,0-4.7,1.81-8.62,5.42-11.76,3.61-3.14,8.67-4.72,15.18-4.72,6,0,10.86,1.45,14.58,4.34,3.72,2.89,5.91,6.98,6.56,12.25h-11.06c-.36-2.31-1.43-4.12-3.2-5.42-1.77-1.3-4.14-1.95-7.1-1.95s-5.13.6-6.72,1.79c-1.59,1.19-2.38,2.73-2.38,4.61s1.1,3.36,3.31,4.45c2.2,1.08,5.11,2.06,8.73,2.93,3.61.8,6.96,1.72,10.03,2.76,3.07,1.05,5.55,2.59,7.43,4.61,1.88,2.02,2.82,4.99,2.82,8.89.07,4.92-1.83,9-5.69,12.25-3.87,3.25-9.13,4.88-15.77,4.88Z"/>
        <path class="cls-1" d="M393.97,119.17l12.9-28.3h-3.14l-21.25-49.33h12.47l16.48,39.79,17.24-39.79h12.14l-34.69,77.63h-12.14Z"/>
        <path class="cls-1" d="M217.36,130.74c-2.17,0-3.96-.67-5.37-2.01-1.41-1.34-2.11-3.02-2.11-5.04s.7-3.7,2.11-5.04c1.41-1.34,3.2-2.01,5.37-2.01s3.96.67,5.37,2.01c1.41,1.34,2.11,3.02,2.11,5.04s-.7,3.7-2.11,5.04c-1.41,1.34-3.2,2.01-5.37,2.01ZM211.62,194.71v-53.77h11.49v53.77h-11.49Z"/>
        <path class="cls-1" d="M238.29,194.71v-53.77h10.19l.87,9.43c1.66-3.32,4.1-5.94,7.32-7.86,3.22-1.91,6.92-2.87,11.11-2.87,6.5,0,11.62,2.02,15.34,6.07,3.72,4.05,5.58,10.08,5.58,18.11v30.9h-11.38v-29.71c0-10.41-4.27-15.61-12.79-15.61-4.27,0-7.79,1.52-10.57,4.55-2.78,3.04-4.17,7.37-4.17,13.01v27.75h-11.49Z"/>
        <path class="cls-1" d="M316.46,194.71l-20.17-53.77h12.03l14.96,42.82,14.96-42.82h11.93l-20.06,53.77h-13.66Z"/>
        <path class="cls-1" d="M382.05,196.01c-5.13,0-9.74-1.18-13.82-3.52-4.08-2.35-7.32-5.64-9.7-9.87-2.38-4.23-3.58-9.16-3.58-14.8s1.21-10.57,3.63-14.8c2.42-4.23,5.69-7.52,9.81-9.87,4.12-2.35,8.71-3.52,13.77-3.52s9.74,1.18,13.82,3.52c4.08,2.35,7.34,5.64,9.76,9.87,2.42,4.23,3.63,9.16,3.63,14.8s-1.21,10.57-3.63,14.8c-2.42,4.23-5.69,7.52-9.81,9.87-4.12,2.35-8.75,3.52-13.88,3.52ZM382.05,186.14c2.75,0,5.29-.69,7.64-2.06,2.35-1.37,4.24-3.42,5.69-6.13,1.45-2.71,2.17-6.09,2.17-10.14s-.7-7.43-2.11-10.14c-1.41-2.71-3.29-4.75-5.64-6.12-2.35-1.37-4.9-2.06-7.64-2.06s-5.3.69-7.64,2.06c-2.35,1.37-4.25,3.41-5.69,6.12-1.45,2.71-2.17,6.09-2.17,10.14s.72,7.43,2.17,10.14c1.44,2.71,3.32,4.75,5.64,6.13,2.31,1.37,4.84,2.06,7.59,2.06Z"/>
        <path class="cls-1" d="M428.34,130.74c-2.17,0-3.96-.67-5.37-2.01-1.41-1.34-2.11-3.02-2.11-5.04s.7-3.7,2.11-5.04c1.41-1.34,3.2-2.01,5.37-2.01s3.96.67,5.37,2.01c1.41,1.34,2.11,3.02,2.11,5.04s-.7,3.7-2.11,5.04c-1.41,1.34-3.2,2.01-5.37,2.01ZM422.6,194.71v-53.77h11.49v53.77h-11.49Z"/>
        <path class="cls-1" d="M474.74,196.01c-5.28,0-9.99-1.19-14.15-3.58-4.16-2.39-7.41-5.69-9.76-9.92-2.35-4.23-3.52-9.12-3.52-14.69s1.17-10.46,3.52-14.69c2.35-4.23,5.6-7.54,9.76-9.92,4.16-2.38,8.87-3.58,14.15-3.58,6.65,0,12.23,1.73,16.75,5.2,4.52,3.47,7.43,8.17,8.73,14.09h-12.03c-.72-2.96-2.31-5.28-4.77-6.94-2.46-1.66-5.35-2.49-8.67-2.49-2.82,0-5.42.7-7.81,2.11-2.39,1.41-4.3,3.47-5.75,6.18-1.45,2.71-2.17,6.05-2.17,10.03s.72,7.32,2.17,10.03c1.45,2.71,3.36,4.79,5.75,6.23,2.38,1.45,4.99,2.17,7.81,2.17,3.32,0,6.21-.83,8.67-2.49,2.46-1.66,4.05-4.01,4.77-7.05h12.03c-1.23,5.78-4.12,10.45-8.67,13.99-4.55,3.54-10.16,5.31-16.8,5.31Z"/>
        <path class="cls-1" d="M537.84,196.01c-5.28,0-9.96-1.18-14.04-3.52-4.08-2.35-7.28-5.62-9.59-9.81-2.31-4.19-3.47-9.07-3.47-14.64s1.14-10.59,3.42-14.85c2.28-4.26,5.46-7.59,9.54-9.97,4.08-2.38,8.84-3.58,14.26-3.58s9.87,1.18,13.77,3.52c3.9,2.35,6.94,5.47,9.11,9.38,2.17,3.9,3.25,8.2,3.25,12.9,0,.72-.02,1.5-.05,2.33-.04.83-.09,1.75-.16,2.77h-41.85c.36,5.2,2.08,9.16,5.15,11.87,3.07,2.71,6.63,4.07,10.68,4.07,3.25,0,5.98-.74,8.19-2.22,2.2-1.48,3.85-3.49,4.93-6.02h11.49c-1.45,5.06-4.32,9.29-8.62,12.68-4.3,3.4-9.63,5.1-15.99,5.1ZM537.84,149.06c-3.83,0-7.23,1.14-10.19,3.41-2.96,2.28-4.77,5.69-5.42,10.25h30.36c-.22-4.19-1.7-7.52-4.45-9.97-2.75-2.46-6.18-3.69-10.3-3.69Z"/>
        <path class="cls-1" d="M576,194.71v-53.77h10.3l.97,10.19c1.88-3.54,4.5-6.34,7.86-8.4,3.36-2.06,7.43-3.09,12.2-3.09v12.03h-3.14c-3.18,0-6.02.52-8.51,1.57-2.49,1.05-4.48,2.82-5.96,5.31-1.48,2.49-2.22,5.95-2.22,10.35v25.8h-11.49Z"/>
      </g>
    </g>
  </g>
</svg>